<?xml version="1.0" encoding="UTF-8"?>
<svg width="100" height="100" viewBox="0 0 100 100" xmlns="http://www.w3.org/2000/svg">
    <!-- Background Circle -->
    <circle cx="50" cy="50" r="45" fill="#E3F2FD"/>
    
    <!-- Modern Shopping Basket -->
    <g transform="translate(25,30)">
        <!-- Basket Body -->
        <path d="M0 15 L50 15 L45 45 L5 45 Z" fill="#1976D2"/>
        <!-- Basket Handle -->
        <path d="M15 15 C15 0, 35 0, 35 15" fill="none" stroke="#1976D2" stroke-width="6" stroke-linecap="round"/>
        
        <!-- Fresh Produce -->
        <!-- Apple -->
        <circle cx="15" cy="30" r="8" fill="#F44336"/>
        <path d="M15 22 C18 22, 18 19, 15 19" stroke="#4CAF50" stroke-width="2" fill="none"/>
        
        <!-- Orange -->
        <circle cx="32" cy="28" r="7" fill="#FF9800"/>
        <path d="M32 21 C35 21, 35 18, 32 18" stroke="#4CAF50" stroke-width="2" fill="none"/>
        
        <!-- Lettuce -->
        <g transform="translate(25,35)">
            <path d="M-5 0 C0 -3, 5 -3, 10 0" stroke="#4CAF50" stroke-width="2" fill="none"/>
            <path d="M-3 3 C2 0, 7 0, 12 3" stroke="#4CAF50" stroke-width="2" fill="none"/>
        </g>
    </g>
    
    <!-- Local/Organic Badge -->
    <g transform="translate(65,65)">
        <circle cx="0" cy="0" r="15" fill="#43A047"/>
        <path d="M-7 0 L-2 5 L8 -5" stroke="white" stroke-width="3" fill="none" stroke-linecap="round" stroke-linejoin="round"/>
    </g>
    
    <!-- Fresh Label Banner -->
    <g transform="translate(20,75)">
        <path d="M0 0 L60 0" stroke="#1976D2" stroke-width="2" stroke-dasharray="4"/>
    </g>
</svg> 